<?xml version="1.0" standalone="no"?>
<!DOCTYPE svg PUBLIC "-//W3C//DTD SVG 20010904//EN"
 "http://www.w3.org/TR/2001/REC-SVG-20010904/DTD/svg10.dtd">
<svg version="1.0" xmlns="http://www.w3.org/2000/svg"
 width="50.000000pt" height="50.000000pt" viewBox="0 0 50.000000 50.000000"
 preserveAspectRatio="xMidYMid meet">

<g transform="translate(0.000000,50.000000) scale(0.100000,-0.100000)"
fill="#000000" stroke="none">
<path d="M198 444 c-35 -18 -58 -62 -58 -109 0 -20 -9 -53 -20 -75 -25 -49
-25 -90 -1 -138 22 -43 84 -82 130 -82 51 0 108 35 131 80 25 50 25 90 0 140
-11 22 -20 55 -20 75 0 94 -85 151 -162 109z m113 -33 c21 -22 29 -39 29 -65
l0 -37 -30 16 c-16 8 -43 15 -60 15 -17 0 -44 -7 -60 -15 l-30 -16 0 37 c0 47
45 94 90 94 22 0 41 -9 61 -29z m18 -119 c58 -43 64 -140 12 -193 -76 -75
-204 -30 -217 77 -14 110 115 183 205 116z"/>
<path d="M224 205 c-6 -14 16 -75 26 -75 10 0 32 61 26 75 -7 19 -45 19 -52 0z"/>
</g>
</svg>
