<?xml version="1.0" standalone="no"?>
<!DOCTYPE svg PUBLIC "-//W3C//DTD SVG 20010904//EN"
 "http://www.w3.org/TR/2001/REC-SVG-20010904/DTD/svg10.dtd">
<svg version="1.0" xmlns="http://www.w3.org/2000/svg"
 width="50.000000pt" height="50.000000pt" viewBox="0 0 50.000000 50.000000"
 preserveAspectRatio="xMidYMid meet">

<g transform="translate(0.000000,50.000000) scale(0.100000,-0.100000)"
fill="#000000" stroke="none">
<path d="M198 445 c-35 -20 -58 -64 -58 -110 0 -20 -9 -53 -20 -75 -25 -49
-25 -90 -1 -138 22 -43 84 -82 130 -82 77 0 151 74 151 150 0 105 -120 181
-210 135 l-30 -16 0 37 c0 47 45 94 90 94 32 0 80 -37 92 -70 3 -8 8 -12 12
-8 9 8 -17 60 -38 77 -24 20 -88 23 -118 6z m131 -153 c58 -43 64 -140 12
-193 -76 -75 -204 -30 -217 77 -14 110 115 183 205 116z"/>
<path d="M224 205 c-6 -14 16 -75 26 -75 10 0 32 61 26 75 -7 19 -45 19 -52 0z"/>
</g>
</svg>
