<?xml version="1.0" standalone="no"?>
<!DOCTYPE svg PUBLIC "-//W3C//DTD SVG 20010904//EN"
 "http://www.w3.org/TR/2001/REC-SVG-20010904/DTD/svg10.dtd">
<svg version="1.0" xmlns="http://www.w3.org/2000/svg"
 width="50.000000pt" height="50.000000pt" viewBox="0 0 50.000000 50.000000"
 preserveAspectRatio="xMidYMid meet">

<g transform="translate(0.000000,50.000000) scale(0.100000,-0.100000)"
fill="#000000" stroke="none">
<path d="M198 445 c-35 -20 -58 -64 -58 -110 0 -20 -9 -53 -20 -75 -25 -49
-25 -90 -1 -138 22 -43 84 -82 130 -82 75 0 151 75 151 149 0 106 -120 183
-210 136 l-30 -16 0 37 c0 47 45 94 90 94 32 0 80 -37 92 -70 3 -8 8 -12 12
-8 9 8 -17 60 -38 77 -24 20 -88 23 -118 6z m78 -240 c6 -14 -16 -75 -26 -75
-10 0 -32 61 -26 75 7 19 45 19 52 0z"/>
</g>
</svg>
